<svg width="238" height="36" viewBox="0 0 238 36" fill="none" xmlns="http://www.w3.org/2000/svg">
<path d="M24.0258 30H0V5.49316H24.0258V8.99658H3.32116V26.4966H24.0258V30ZM21.2069 19.5068H4.97365V16.0034H21.2069V19.5068Z" fill="#EEC643"/>
<path d="M31.4782 30H28.157V5.49316H29.8095C30.8895 5.49316 32.0344 5.64128 33.244 5.9375C34.4645 6.23372 35.7066 6.66097 36.9702 7.21924C38.2339 7.77751 39.4922 8.4554 40.745 9.25293C42.0087 10.0391 43.2291 10.9334 44.4064 11.936C45.5837 12.9386 46.6907 14.0324 47.7276 15.2173C48.7644 16.3908 49.6933 17.644 50.5141 18.9771V5.49316H53.8353V30H50.5141C50.5141 28.1999 50.2171 26.4681 49.6231 24.8047C49.029 23.1299 48.2352 21.5519 47.2415 20.0708C46.2479 18.5897 45.103 17.2282 43.807 15.9863C42.5109 14.7331 41.1554 13.6336 39.7406 12.688C38.3365 11.7424 36.9216 10.9676 35.496 10.3638C34.0703 9.74854 32.731 9.33838 31.4782 9.1333V30Z" fill="#EEC643"/>
<path d="M83.4503 30H59.4245V5.49316H83.4503V8.99658H62.7457V26.4966H83.4503V30ZM80.6314 19.5068H64.3982V16.0034H80.6314V19.5068Z" fill="#EEC643"/>
<path d="M114.394 30H109.906L102.94 22.9932H92.7658V19.541H106.099C106.79 19.541 107.438 19.4043 108.043 19.1309C108.648 18.846 109.172 18.4644 109.615 17.9858C110.068 17.5073 110.425 16.9491 110.684 16.311C110.943 15.6616 111.073 14.9723 111.073 14.2432C111.073 13.514 110.943 12.8304 110.684 12.1924C110.425 11.5544 110.068 11.0018 109.615 10.5347C109.172 10.0562 108.648 9.68018 108.043 9.40674C107.438 9.1333 106.79 8.99658 106.099 8.99658H90.9027V30H87.5816V5.49316H106.099C107.244 5.49316 108.319 5.72673 109.323 6.19385C110.327 6.64958 111.202 7.2762 111.948 8.07373C112.704 8.85986 113.298 9.78271 113.73 10.8423C114.172 11.9019 114.394 13.0355 114.394 14.2432C114.394 15.3369 114.216 16.3737 113.859 17.3535C113.503 18.3219 113.011 19.1935 112.385 19.9683C111.759 20.7316 111.019 21.3696 110.165 21.8823C109.323 22.3836 108.41 22.7197 107.428 22.8906L114.394 30Z" fill="#EEC643"/>
<path d="M116.659 0H238V36H116.659V0Z" fill="#EEC643"/>
<path d="M147.741 8.99658L126.404 26.4966H147.741V30H120.896V26.4966L142.362 8.99658H120.896V5.49316H147.741V8.99658Z" fill="#010922"/>
<path d="M175.93 30H151.904V5.49316H175.93V8.99658H155.225V26.4966H175.93V30ZM173.111 19.5068H156.878V16.0034H173.111V19.5068Z" fill="#010922"/>
<path d="M205.707 22.9932C205.707 23.973 205.534 24.8901 205.189 25.7446C204.843 26.5877 204.368 27.3283 203.763 27.9663C203.169 28.5929 202.467 29.0885 201.657 29.4531C200.858 29.8177 199.999 30 199.081 30H178.895V26.4966H199.081C199.545 26.4966 199.977 26.4054 200.377 26.2231C200.777 26.0409 201.122 25.7902 201.414 25.4712C201.716 25.1522 201.954 24.7819 202.127 24.3604C202.3 23.9274 202.386 23.4717 202.386 22.9932C202.386 22.5146 202.3 22.0646 202.127 21.6431C201.954 21.2215 201.716 20.8512 201.414 20.5322C201.122 20.2132 200.777 19.9626 200.377 19.7803C199.977 19.598 199.545 19.5068 199.081 19.5068H185.537C184.63 19.5068 183.771 19.3245 182.961 18.96C182.151 18.5954 181.444 18.0998 180.839 17.4731C180.245 16.8351 179.77 16.0889 179.413 15.2344C179.068 14.3799 178.895 13.4684 178.895 12.5C178.895 11.543 179.068 10.6372 179.413 9.78271C179.77 8.92822 180.245 8.18766 180.839 7.56104C181.444 6.92301 182.151 6.42171 182.961 6.05713C183.771 5.68115 184.63 5.49316 185.537 5.49316H204.055V8.99658H185.537C185.084 8.99658 184.652 9.08773 184.241 9.27002C183.841 9.45231 183.49 9.70296 183.188 10.022C182.886 10.341 182.648 10.717 182.475 11.1499C182.302 11.5715 182.216 12.0215 182.216 12.5C182.216 12.9785 182.302 13.4342 182.475 13.8672C182.648 14.2887 182.886 14.659 183.188 14.978C183.49 15.297 183.841 15.5477 184.241 15.73C184.652 15.9123 185.084 16.0034 185.537 16.0034H199.081C199.999 16.0034 200.858 16.1914 201.657 16.5674C202.467 16.932 203.169 17.4333 203.763 18.0713C204.368 18.6979 204.843 19.4385 205.189 20.293C205.534 21.1361 205.707 22.0361 205.707 22.9932Z" fill="#010922"/>
<path d="M222.216 30H218.895V8.99658H207.149V5.49316H233.961V8.99658H222.216V30Z" fill="#010922"/>
</svg>
